<svg width="360" height="420" viewBox="0 0 360 420" fill="none" xmlns="http://www.w3.org/2000/svg">
<path fill-rule="evenodd" clip-rule="evenodd" d="M329.898 87.427L179.949 0.853966L30 87.427V260.573L179.949 347.146L329.898 260.573V87.427ZM242.998 170.827C240.996 170.698 239.478 168.987 239.591 166.985C239.704 164.999 241.415 163.465 243.417 163.562L255.38 164.256C257.382 164.386 258.9 166.097 258.787 168.099C258.674 170.036 257.076 171.521 255.17 171.521H254.961L242.998 170.827ZM238.687 148.951C239.236 148.951 239.785 148.822 240.301 148.564L251.005 143.188C252.797 142.284 253.524 140.104 252.62 138.312C251.732 136.52 249.552 135.81 247.76 136.698L237.056 142.074C235.264 142.978 234.538 145.158 235.442 146.95C236.072 148.225 237.363 148.951 238.687 148.951ZM223.834 132.274C223.156 132.274 222.462 132.081 221.848 131.677C220.169 130.579 219.701 128.319 220.799 126.656L227.386 116.646C228.484 114.984 230.728 114.515 232.407 115.613C234.07 116.711 234.538 118.955 233.44 120.634L226.869 130.644C226.175 131.693 225.013 132.274 223.834 132.274ZM202.41 125.251H202.62C204.525 125.251 206.124 123.766 206.237 121.829L206.931 109.866C207.044 107.864 205.526 106.152 203.524 106.023C201.571 105.926 199.811 107.428 199.698 109.43L199.004 121.393C198.891 123.411 200.408 125.122 202.41 125.251ZM180.744 129.772C179.421 129.772 178.129 129.045 177.499 127.77L172.123 117.066C171.219 115.274 171.946 113.095 173.738 112.191C175.546 111.303 177.725 112.013 178.613 113.805L183.99 124.509C184.894 126.301 184.167 128.48 182.375 129.384C181.842 129.643 181.293 129.772 180.744 129.772ZM152.072 137.44L162.081 144.011C162.695 144.415 163.389 144.609 164.067 144.609C165.246 144.609 166.408 144.027 167.102 142.978C168.2 141.299 167.732 139.055 166.069 137.957L156.06 131.386C154.397 130.288 152.136 130.757 151.039 132.42C149.925 134.099 150.393 136.343 152.072 137.44ZM230.502 166.468C230.421 167.808 230.26 169.116 230.001 170.424C246.549 173.798 259.045 188.457 259.045 205.99C259.045 225.993 242.771 242.283 222.768 242.283H126.241C112.227 242.283 100.829 230.885 100.813 216.871C100.813 202.939 112.098 191.589 125.999 191.476C127.855 167.146 148.246 147.918 173.027 147.918C173.344 147.918 173.65 147.947 173.958 147.976C174.215 148 174.474 148.024 174.739 148.031C180.68 139.055 191.125 133.711 201.878 134.325C209.998 134.793 217.441 138.393 222.849 144.463C228.258 150.534 230.97 158.348 230.502 166.468ZM217.441 149.307C213.324 144.673 207.657 141.929 201.474 141.573C194.451 141.17 187.719 144.044 183.085 149.113C195.71 151.857 206.753 159.607 213.518 170.94C216.553 170.117 219.636 169.713 222.736 169.713C222.995 168.519 223.204 167.308 223.269 166.065C223.624 159.881 221.558 153.924 217.441 149.307ZM126.241 235.018H222.752C238.768 235.018 251.796 221.989 251.78 205.958C251.78 189.958 238.768 176.93 222.752 176.93C219.459 176.93 216.182 177.495 213.001 178.641L209.998 179.723L208.545 176.898C201.668 163.498 188.058 155.167 173.044 155.167C151.039 155.167 133.134 173.087 133.134 195.092V199.306L128.985 198.967C128.081 198.822 127.177 198.725 126.241 198.725C116.231 198.725 108.094 206.862 108.094 216.871C108.094 226.881 116.231 235.018 126.241 235.018Z" fill="white"/>
<path d="M28.7962 411L21.2393 383.364H24.6399L30.4155 405.872H30.6854L36.5689 383.364H40.3473L46.2308 405.872H46.5007L52.2763 383.364H55.6768L48.12 411H44.6655L38.5661 388.977H38.3501L32.2507 411H28.7962ZM59.8466 411V383.364H76.5256V386.332H63.1932V395.67H75.6619V398.639H63.1932V408.031H76.7415V411H59.8466ZM83.6911 411H80.1825L90.3303 383.364H93.7848L103.933 411H100.424L92.1655 387.736H91.9496L83.6911 411ZM84.9865 400.205H99.1286V403.173H84.9865V400.205ZM103.497 386.332V383.364H124.225V386.332H115.534V411H112.188V386.332H103.497ZM129.39 411V383.364H132.736V395.67H147.472V383.364H150.819V411H147.472V398.639H132.736V411H129.39ZM157.518 411V383.364H174.197V386.332H160.865V395.67H173.334V398.639H160.865V408.031H174.413V411H157.518ZM180.229 411V383.364H189.567C191.727 383.364 193.499 383.732 194.884 384.47C196.27 385.199 197.295 386.202 197.961 387.479C198.627 388.757 198.96 390.21 198.96 391.838C198.96 393.466 198.627 394.91 197.961 396.17C197.295 397.429 196.274 398.419 194.898 399.138C193.521 399.849 191.763 400.205 189.621 400.205H182.065V397.182H189.513C190.989 397.182 192.176 396.966 193.076 396.534C193.985 396.102 194.641 395.491 195.046 394.699C195.46 393.898 195.667 392.945 195.667 391.838C195.667 390.732 195.46 389.764 195.046 388.937C194.632 388.109 193.971 387.47 193.062 387.021C192.154 386.562 190.953 386.332 189.46 386.332H183.576V411H180.229ZM193.238 398.585L200.039 411H196.153L189.46 398.585H193.238ZM228.907 391.649C228.817 390.66 228.416 389.89 227.706 389.342C227.004 388.784 226.001 388.505 224.697 388.505C223.833 388.505 223.113 388.617 222.537 388.842C221.962 389.067 221.53 389.378 221.242 389.773C220.954 390.16 220.806 390.606 220.797 391.109C220.779 391.523 220.86 391.888 221.04 392.202C221.229 392.517 221.498 392.796 221.849 393.039C222.209 393.273 222.641 393.48 223.145 393.66C223.648 393.84 224.215 393.997 224.845 394.132L227.22 394.672C228.587 394.969 229.793 395.365 230.836 395.859C231.889 396.354 232.771 396.943 233.481 397.627C234.201 398.311 234.745 399.098 235.114 399.989C235.483 400.879 235.672 401.878 235.681 402.984C235.672 404.73 235.231 406.228 234.358 407.478C233.486 408.728 232.231 409.687 230.594 410.352C228.965 411.018 227 411.351 224.697 411.351C222.385 411.351 220.369 411.004 218.651 410.312C216.933 409.619 215.597 408.567 214.643 407.154C213.69 405.742 213.199 403.956 213.172 401.797H219.569C219.623 402.688 219.861 403.43 220.284 404.023C220.707 404.617 221.287 405.067 222.025 405.373C222.771 405.679 223.635 405.832 224.616 405.832C225.515 405.832 226.28 405.71 226.91 405.467C227.548 405.224 228.039 404.887 228.381 404.455C228.722 404.023 228.898 403.529 228.907 402.971C228.898 402.449 228.736 402.004 228.421 401.635C228.106 401.257 227.62 400.933 226.964 400.663C226.316 400.384 225.488 400.128 224.481 399.894L221.593 399.219C219.2 398.671 217.315 397.785 215.939 396.561C214.562 395.329 213.879 393.664 213.888 391.568C213.879 389.859 214.337 388.361 215.264 387.075C216.191 385.788 217.473 384.785 219.11 384.065C220.747 383.346 222.614 382.986 224.71 382.986C226.851 382.986 228.709 383.35 230.283 384.079C231.867 384.799 233.095 385.811 233.967 387.115C234.84 388.42 235.285 389.931 235.303 391.649H228.907ZM264.14 393.376H257.393C257.303 392.684 257.119 392.058 256.84 391.501C256.561 390.943 256.192 390.466 255.733 390.07C255.275 389.674 254.73 389.373 254.101 389.166C253.48 388.95 252.792 388.842 252.036 388.842C250.696 388.842 249.54 389.171 248.568 389.827C247.605 390.484 246.863 391.433 246.341 392.675C245.829 393.916 245.572 395.419 245.572 397.182C245.572 399.017 245.833 400.555 246.355 401.797C246.886 403.029 247.628 403.96 248.581 404.59C249.544 405.211 250.682 405.521 251.996 405.521C252.733 405.521 253.403 405.427 254.006 405.238C254.618 405.049 255.153 404.775 255.612 404.415C256.08 404.046 256.462 403.601 256.759 403.079C257.065 402.548 257.276 401.95 257.393 401.284L264.14 401.325C264.023 402.548 263.668 403.754 263.074 404.941C262.49 406.129 261.684 407.213 260.659 408.193C259.633 409.165 258.383 409.938 256.907 410.514C255.441 411.09 253.759 411.378 251.861 411.378C249.36 411.378 247.12 410.829 245.14 409.732C243.17 408.625 241.614 407.015 240.471 404.901C239.329 402.786 238.758 400.214 238.758 397.182C238.758 394.141 239.338 391.564 240.498 389.45C241.659 387.335 243.229 385.73 245.208 384.632C247.187 383.535 249.405 382.986 251.861 382.986C253.534 382.986 255.081 383.22 256.503 383.688C257.924 384.146 259.175 384.821 260.254 385.712C261.334 386.593 262.211 387.677 262.885 388.964C263.56 390.25 263.979 391.721 264.14 393.376ZM273.236 411H266.057L275.381 383.364H284.274L293.599 411H286.42L279.929 390.327H279.713L273.236 411ZM272.278 400.124H287.283V405.197H272.278V400.124ZM296.574 411V383.364H303.254V405.575H314.751V411H296.574ZM318.209 411V383.364H337.479V388.788H324.888V394.456H336.494V399.894H324.888V405.575H337.479V411H318.209Z" fill="white"/>
</svg>
